<?xml version="1.0" standalone="no"?>
<svg width="100%" height="100%" version="1.1"
  xmlns="http://www.w3.org/2000/svg">
  <rect id="A" x="33" y="34" fill="#FF6CC4" stroke="#C30D23" stroke-width="3" width="75" height="75"/>
  <circle fill="#FF4343" stroke="#890000" stroke-width="5" cx="80.141" cy="73.446" r="44"/>
  <rect id="B" x="119" y="54" fill="#6EA9FF" stroke="#036EB7" stroke-width="3" width="117" height="55"/>
  <rect x="60" y="10" rx="10" ry="10" width="75" height="75" stroke="#FF5500" stroke-width="5" fill="#FFB255"/>
  <ellipse fill="#77DD47" stroke="#246614" stroke-width="5" cx="100" cy="75" rx="67" ry="5"/>
  <polygon fill="#D271FF" points="100,56 62,107 37,49"/>
  <polygon fill="#68EADD" points="151,39 163,63 189,66 170,85 175,111 151,99 127,111 132,85 113,66 139,63 "/>
  <polygon fill="#FF7900" points="219,110 206,70 240,46 274,70 261,110 "/>
  
  <path d="M0 0 H50" stroke="black"/>
  <path d="M0 0 V50" stroke="black"/>
  <path d="M0 0 C40 40,60 40,100,0" stroke="black" fill="none"/>
  <path d="M100 100 C140 40,160 140,100,0 S150 140, 200 0" stroke="black" fill="none" stroke-width="5" />
  <path d="M0 0 Q50 50, 100 0" stroke="black" fill="none"/>
  <path d="M100 100 Q50 50, 100 0 T200 0" stroke="black" fill="none"/>
  <path d="M100 100 Q150 150, 200 500 T400 500 z" stroke="red" fill="none"/>
  </svg>
